<svg xmlns="http://www.w3.org/2000/svg" viewBox="0 0 24 24" fill="none">
  <circle cx="8" cy="9" r="4" fill="#D7AE69" opacity="0.4" />
  <path
    d="M8 3v2M4.46 5.46l1.42 1.42M2 9h2M4.46 12.54l1.42-1.42"
    stroke="#D7AE69"
    stroke-width="1.5"
    stroke-linecap="round"
  />
  <path
    d="M17.5 12.5a2.5 2.5 0 0 0-2.5-2.5c-.32 0-.62.06-.9.17a3.5 3.5 0 0 0-6.6 1.83 2.5 2.5 0 0 0 .5 4.5h9a2.5 2.5 0 0 0 .5-4z"
    fill="#C89A58"
  />
  <path
    d="M19 2l.75 1.75L21.5 4.5 19.75 5.25 19 7l-.75-1.75L16.5 4.5l1.75-.75L19 2z"
    fill="#D7AE69"
  />
</svg>
